<?xml version="1.0" encoding="UTF-8"?>
<svg width="250px" height="80px" viewBox="0 0 250 80" version="1.1" xmlns="http://www.w3.org/2000/svg" xmlns:xlink="http://www.w3.org/1999/xlink">
    <!-- Generator: sketchtool 61.2 (101010) - https://sketch.com -->
    <title>332EFC8F-9407-41BE-AF4E-2DA0C5640258@1.50x</title>
    <desc>Created with sketchtool.</desc>
    <g id="Logo-Proof" stroke="none" stroke-width="1" fill="none" fill-rule="evenodd">
        <g id="Zepplin-Digit-Inverted" transform="translate(-80.000000, -111.000000)" fill="#FFFFFF">
            <g id="Logo/Zeppelin-Digit/Large/Inverted" transform="translate(50.000000, 83.000000)">
                <g id="Logo/Zeppelin-Digit/Naked/Large/Inverted" transform="translate(30.000000, 28.000000)">
                    <path d="M170.318264,18.1262221 C174.96022,18.1262221 178.701144,19.6688758 181.509085,22.7429472 L181.8862,23.17163 L182.185109,23.5384202 L182.797521,18.9177601 L195.575868,18.9177601 L195.575868,24.7761286 L190.27116,25.9217791 L190.272526,61.6742526 L190.263662,62.3962717 C190.132436,67.7131749 188.548324,71.9510129 185.505745,75.0846094 C182.320761,78.3648709 177.802105,80 171.980494,80 C169.883294,80 167.61692,79.7116743 165.181063,79.1361697 C163.04595,78.6317197 161.132981,77.9668156 159.442542,77.1405637 L158.731693,76.7765747 L158.37344,76.5844679 L160.696956,69.6139205 L161.744362,70.1423619 C163.041092,70.7681751 164.540191,71.2971024 166.241593,71.7281243 C168.182512,72.2198238 170.06889,72.4653113 171.90134,72.4653113 C175.25127,72.4653113 177.666879,71.5415123 179.188424,69.710711 C180.634738,67.9704303 181.410531,65.5101345 181.501855,62.3167996 L181.51099,61.668355 L181.509663,58.8989743 L181.218336,59.2107557 C178.674491,61.8105664 175.438479,63.2400268 171.532216,63.4946318 L170.87497,63.5261868 L170.23911,63.5360079 C166.662403,63.5360079 163.55961,62.6446353 160.943659,60.8597943 C158.333944,59.0792072 156.330331,56.5933685 154.936102,53.4123614 C153.648187,50.4739152 152.959687,47.1077561 152.867901,43.3164438 L152.857311,42.4339796 L152.857311,41.5977196 L152.867822,40.6173978 C152.959117,36.3752571 153.645272,32.6207271 154.928973,29.3553897 C156.319077,25.8193968 158.317785,23.0618573 160.924818,21.0930045 C163.544047,19.1149409 166.680672,18.1262221 170.318264,18.1262221 Z M76.8969949,4.11599802 L52.5033474,67.6520059 L44.8599935,67.6520059 L69.2938283,4.11599802 L76.8969949,4.11599802 Z M116.02629,4.17443857e-14 L116.026155,55.7205192 L122.477326,56.8290907 L122.477326,62.7048929 L108.34986,62.7048929 L107.806944,58.3335296 L107.453208,58.7463903 C104.850059,61.6526961 101.438484,63.2386386 97.2447505,63.4979869 L96.6098276,63.5269389 L95.9928385,63.5360079 C92.4152034,63.5360079 89.3310773,62.6441304 86.7538298,60.8577842 C84.1837665,59.0764176 82.2201609,56.5964313 80.8661593,53.4280675 C79.6160191,50.5027396 78.9478519,47.1331491 78.8587777,43.3214496 L78.8485006,42.4339796 L78.8485006,41.5978694 L78.858702,40.6177001 C78.9473075,36.3770418 79.6132147,32.6239888 80.859062,29.3598688 C82.2090508,25.822898 84.1746652,23.0642599 86.7557617,21.0944757 C89.3489407,19.1154707 92.4599571,18.1262221 96.0719923,18.1262221 C98.6747965,18.1262221 100.98245,18.6095358 102.99011,19.579222 C104.394997,20.2577729 105.656338,21.1472918 106.772801,22.2462521 L107.264657,22.7568329 L107.264657,7.02280478 L100.813682,5.91537914 L100.813682,4.17443857e-14 L116.02629,4.17443857e-14 Z M238.599223,8.58818818 L238.598997,18.9164409 L247.899796,18.9177601 L247.899796,25.6609107 L238.598997,25.6593201 L238.599154,51.1723082 L238.607454,51.6670058 C238.666526,53.3724647 239.042255,54.6208544 239.713462,55.4219731 C240.437675,56.2863563 241.396319,56.7137035 242.628529,56.7137035 C243.526413,56.7137035 244.531607,56.6299373 245.643417,56.4618731 L246.547544,56.3208159 C247.109308,56.2300532 247.589027,56.1458595 247.986295,56.0683436 L248.740662,55.9131517 L249.999758,61.9288345 L249.061518,62.1990208 C248.007736,62.4883588 246.766406,62.7471057 245.336617,62.9758718 C243.663289,63.2436044 242.101072,63.3777003 240.649684,63.3777003 C237.361537,63.3777003 234.724821,62.4019079 232.769132,60.4462189 C230.908878,58.5859646 229.942291,55.709517 229.845698,51.8353967 L229.837651,51.1804754 L229.8375,25.6593201 L223.07,25.6609107 L223.07,18.9177601 L229.8375,18.9164409 L229.837651,8.58818818 L238.599223,8.58818818 Z M214.425051,18.9177601 L214.423513,55.7205192 L220.876087,56.8290907 L220.876087,62.7048929 L199.212443,62.7048929 L199.212443,56.8290907 L205.662016,55.7205192 L205.662016,25.9391477 L199.212443,24.8331393 L199.212443,18.9177601 L214.425051,18.9177601 Z M141.830432,18.9177601 L141.830115,55.7205192 L148.281467,56.8290907 L148.281467,62.7048929 L126.617824,62.7048929 L126.617824,56.8290907 L133.068618,55.7205192 L133.068618,25.9391477 L126.617824,24.8331393 L126.617824,18.9177601 L141.830432,18.9177601 Z M33.9324837,18.9177601 L33.9324837,24.7035266 L33.8368042,24.9919165 L10.8630988,55.8015727 L27.7280162,55.8015727 L28.7569568,48.5608613 L35.4759829,48.5608613 L35.4759829,62.7048929 L6.71462885e-13,62.7048929 L6.71462885e-13,56.7608189 L0.0953222823,56.4729087 L22.8319989,25.8966911 L8.26359726,25.8966911 L7.2750624,33.1013687 L0.514499753,33.1013687 L0.514499753,18.9177601 L33.9324837,18.9177601 Z M172.257533,25.4234493 C168.706228,25.4234493 166.08103,26.8915696 164.321749,29.8572154 C162.628743,32.7111402 161.728338,36.3454064 161.628267,40.7649888 L161.618846,41.6028646 L161.618846,42.4279031 L161.628176,43.1718668 C161.726709,47.0374879 162.608058,50.1527216 164.263039,52.5272606 C165.988877,55.0034624 168.609249,56.2387807 172.178379,56.2387807 C174.435096,56.2387807 176.306862,55.7300119 177.805413,54.7184899 C179.168467,53.7984288 180.320114,52.5321135 181.260864,50.9142099 L181.509663,50.461691 L181.509663,31.0049914 L181.271542,30.5936541 C180.465898,29.2712385 179.482007,28.1761063 178.318248,27.3052785 L177.808477,26.9457908 C176.281748,25.9321427 174.435379,25.4234493 172.257533,25.4234493 Z M98.0508375,25.4234493 C94.5008017,25.4234493 91.9105878,26.8769506 90.216954,29.8125825 C88.5844105,32.6423246 87.7156808,36.2887815 87.6191263,40.7557014 L87.6100372,41.6028646 L87.6100372,42.4280792 L87.6191008,43.1722229 C87.7148301,47.0399733 88.5712008,50.157276 90.1788241,52.5327194 C91.8522948,55.0054598 94.4310567,56.2387807 97.9716837,56.2387807 C100.202766,56.2387807 102.062197,55.7362318 103.561444,54.7367337 C104.924363,53.8281212 106.075646,52.5787351 107.015999,50.9832767 L107.264657,50.5388848 L107.264657,30.9316573 L106.99261,30.4697037 C106.192293,29.1891977 105.218016,28.1262011 104.068089,27.2779274 L103.564504,26.9275197 C102.037074,25.9259261 100.203034,25.4234493 98.0508375,25.4234493 Z M214.425051,-2.77111667e-13 L214.425051,9.31564937 L205.267709,9.31564937 L205.267709,-2.77111667e-13 L214.425051,-2.77111667e-13 Z M141.830432,-1.63424829e-13 L141.830432,9.31564937 L132.67309,9.31564937 L132.67309,-1.63424829e-13 L141.830432,-1.63424829e-13 Z" id="z/digit"></path>
                </g>
            </g>
        </g>
    </g>
</svg>